<svg xmlns="http://www.w3.org/2000/svg" x="0px" y="0px"
width="50" height="50"
viewBox="0 0 172 172"
style=" fill:#000000;"><g fill="none" fill-rule="none" stroke="none" stroke-width="1" stroke-linecap="butt" stroke-linejoin="miter" stroke-miterlimit="10" stroke-dasharray="" stroke-dashoffset="0" font-family="none" font-weight="none" font-size="none" text-anchor="none" style="mix-blend-mode: normal"><path d="M0,172v-172h172v172z" fill="none" fill-rule="nonzero"></path><path d="M21.5,172c-11.87412,0 -21.5,-9.62588 -21.5,-21.5v-129c0,-11.87412 9.62588,-21.5 21.5,-21.5h129c11.87412,0 21.5,9.62588 21.5,21.5v129c0,11.87412 -9.62588,21.5 -21.5,21.5zM147.06,168.56c11.87412,0 21.5,-9.62588 21.5,-21.5v-122.12c0,-11.87412 -9.62588,-21.5 -21.5,-21.5h-122.12c-11.87412,0 -21.5,9.62588 -21.5,21.5v122.12c0,11.87412 9.62588,21.5 21.5,21.5z" fill="#6db4c7" fill-rule="nonzero"></path><g fill="#6db4c7" fill-rule="evenodd"><g id="surface1"><path d="M129.344,132.44l-43.344,12.384l-43.344,-12.384l-9.288,-105.264h105.264c-3.096,35.08397 -6.192,70.18003 -9.288,105.264zM131.87159,33.368h-91.74319l8.3205,94.28288l37.55109,10.73925l37.55109,-10.73925zM60.61522,95.288h12.384l0.30235,7.74l12.69844,4.32956l12.69844,-4.32956l0.91913,-13.932h-27.23513l-0.62887,-12.384h28.49287l0.91913,-12.384h-42.71513l-0.93122,-12.384h56.65922l-1.548,24.768l-2.17688,35.604l-24.45356,8.05444l-24.45356,-8.05444z"></path></g></g><path d="M0,172v-172h172v172z" fill="none" fill-rule="nonzero"></path><path d="M3.44,168.56v-165.12h165.12v165.12z" fill="none" fill-rule="nonzero"></path><path d="M2.58,172c-1.42489,0 -2.58,-1.15511 -2.58,-2.58v-166.84c0,-1.42489 1.15511,-2.58 2.58,-2.58h166.84c1.42489,0 2.58,1.15511 2.58,2.58v166.84c0,1.42489 -1.15511,2.58 -2.58,2.58z" fill="none" fill-rule="nonzero"></path><path d="M6.02,168.56c-1.42489,0 -2.58,-1.15511 -2.58,-2.58v-159.96c0,-1.42489 1.15511,-2.58 2.58,-2.58h159.96c1.42489,0 2.58,1.15511 2.58,2.58v159.96c0,1.42489 -1.15511,2.58 -2.58,2.58z" fill="none" fill-rule="nonzero"></path><path d="M3.44,172c-1.89986,0 -3.44,-1.54014 -3.44,-3.44v-165.12c0,-1.89986 1.54014,-3.44 3.44,-3.44h165.12c1.89986,0 3.44,1.54014 3.44,3.44v165.12c0,1.89986 -1.54014,3.44 -3.44,3.44z" fill="none" fill-rule="nonzero"></path><path d="M6.88,168.56c-1.89986,0 -3.44,-1.54014 -3.44,-3.44v-158.24c0,-1.89986 1.54014,-3.44 3.44,-3.44h158.24c1.89986,0 3.44,1.54014 3.44,3.44v158.24c0,1.89986 -1.54014,3.44 -3.44,3.44z" fill="none" fill-rule="nonzero"></path><path d="M5.16,172c-2.84979,0 -5.16,-2.31021 -5.16,-5.16v-161.68c0,-2.84979 2.31021,-5.16 5.16,-5.16h161.68c2.84979,0 5.16,2.31021 5.16,5.16v161.68c0,2.84979 -2.31021,5.16 -5.16,5.16z" fill="none" fill-rule="nonzero"></path><path d="M8.6,168.56c-2.84979,0 -5.16,-2.31021 -5.16,-5.16v-154.8c0,-2.84979 2.31021,-5.16 5.16,-5.16h154.8c2.84979,0 5.16,2.31021 5.16,5.16v154.8c0,2.84979 -2.31021,5.16 -5.16,5.16z" fill="none" fill-rule="nonzero"></path><path d="M6.02,172c-3.32475,0 -6.02,-2.69525 -6.02,-6.02v-159.96c0,-3.32475 2.69525,-6.02 6.02,-6.02h159.96c3.32475,0 6.02,2.69525 6.02,6.02v159.96c0,3.32475 -2.69525,6.02 -6.02,6.02z" fill="none" fill-rule="nonzero"></path><path d="M9.46,168.56c-3.32475,0 -6.02,-2.69525 -6.02,-6.02v-153.08c0,-3.32475 2.69525,-6.02 6.02,-6.02h153.08c3.32475,0 6.02,2.69525 6.02,6.02v153.08c0,3.32475 -2.69525,6.02 -6.02,6.02z" fill="none" fill-rule="nonzero"></path><path d="M6.88,172c-3.79972,0 -6.88,-3.08028 -6.88,-6.88v-158.24c0,-3.79972 3.08028,-6.88 6.88,-6.88h158.24c3.79972,0 6.88,3.08028 6.88,6.88v158.24c0,3.79972 -3.08028,6.88 -6.88,6.88z" fill="none" fill-rule="nonzero"></path><path d="M10.32,168.56c-3.79972,0 -6.88,-3.08028 -6.88,-6.88v-151.36c0,-3.79972 3.08028,-6.88 6.88,-6.88h151.36c3.79972,0 6.88,3.08028 6.88,6.88v151.36c0,3.79972 -3.08028,6.88 -6.88,6.88z" fill="none" fill-rule="nonzero"></path><path d="M7.74,172c-4.27468,0 -7.74,-3.46532 -7.74,-7.74v-156.52c0,-4.27468 3.46532,-7.74 7.74,-7.74h156.52c4.27468,0 7.74,3.46532 7.74,7.74v156.52c0,4.27468 -3.46532,7.74 -7.74,7.74z" fill="none" fill-rule="nonzero"></path><path d="M11.18,168.56c-4.27468,0 -7.74,-3.46532 -7.74,-7.74v-149.64c0,-4.27468 3.46532,-7.74 7.74,-7.74h149.64c4.27468,0 7.74,3.46532 7.74,7.74v149.64c0,4.27468 -3.46532,7.74 -7.74,7.74z" fill="none" fill-rule="nonzero"></path><path d="M8.6,172c-4.74965,0 -8.6,-3.85035 -8.6,-8.6v-154.8c0,-4.74965 3.85035,-8.6 8.6,-8.6h154.8c4.74965,0 8.6,3.85035 8.6,8.6v154.8c0,4.74965 -3.85035,8.6 -8.6,8.6z" fill="none" fill-rule="nonzero"></path><path d="M12.04,168.56c-4.74965,0 -8.6,-3.85035 -8.6,-8.6v-147.92c0,-4.74965 3.85035,-8.6 8.6,-8.6h147.92c4.74965,0 8.6,3.85035 8.6,8.6v147.92c0,4.74965 -3.85035,8.6 -8.6,8.6z" fill="none" fill-rule="nonzero"></path><path d="M9.46,172c-5.22461,0 -9.46,-4.23539 -9.46,-9.46v-153.08c0,-5.22461 4.23539,-9.46 9.46,-9.46h153.08c5.22461,0 9.46,4.23539 9.46,9.46v153.08c0,5.22461 -4.23539,9.46 -9.46,9.46z" fill="none" fill-rule="nonzero"></path><path d="M12.9,168.56c-5.22461,0 -9.46,-4.23539 -9.46,-9.46v-146.2c0,-5.22461 4.23539,-9.46 9.46,-9.46h146.2c5.22461,0 9.46,4.23539 9.46,9.46v146.2c0,5.22461 -4.23539,9.46 -9.46,9.46z" fill="none" fill-rule="nonzero"></path><path d="M10.32,172c-5.69958,0 -10.32,-4.62042 -10.32,-10.32v-151.36c0,-5.69958 4.62042,-10.32 10.32,-10.32h151.36c5.69958,0 10.32,4.62042 10.32,10.32v151.36c0,5.69958 -4.62042,10.32 -10.32,10.32z" fill="none" fill-rule="nonzero"></path><path d="M13.76,168.56c-5.69958,0 -10.32,-4.62042 -10.32,-10.32v-144.48c0,-5.69958 4.62042,-10.32 10.32,-10.32h144.48c5.69958,0 10.32,4.62042 10.32,10.32v144.48c0,5.69958 -4.62042,10.32 -10.32,10.32z" fill="none" fill-rule="nonzero"></path><path d="M11.18,172c-6.17454,0 -11.18,-5.00546 -11.18,-11.18v-149.64c0,-6.17454 5.00546,-11.18 11.18,-11.18h149.64c6.17454,0 11.18,5.00546 11.18,11.18v149.64c0,6.17454 -5.00546,11.18 -11.18,11.18z" fill="none" fill-rule="nonzero"></path><path d="M14.62,168.56c-6.17454,0 -11.18,-5.00546 -11.18,-11.18v-142.76c0,-6.17454 5.00546,-11.18 11.18,-11.18h142.76c6.17454,0 11.18,5.00546 11.18,11.18v142.76c0,6.17454 -5.00546,11.18 -11.18,11.18z" fill="none" fill-rule="nonzero"></path><path d="M12.9,172c-7.12447,0 -12.9,-5.77553 -12.9,-12.9v-146.2c0,-7.12447 5.77553,-12.9 12.9,-12.9h146.2c7.12447,0 12.9,5.77553 12.9,12.9v146.2c0,7.12447 -5.77553,12.9 -12.9,12.9z" fill="none" fill-rule="nonzero"></path><path d="M16.34,168.56c-7.12447,0 -12.9,-5.77553 -12.9,-12.9v-139.32c0,-7.12447 5.77553,-12.9 12.9,-12.9h139.32c7.12447,0 12.9,5.77553 12.9,12.9v139.32c0,7.12447 -5.77553,12.9 -12.9,12.9z" fill="none" fill-rule="nonzero"></path><path d="M15.48,172c-8.54937,0 -15.48,-6.93063 -15.48,-15.48v-141.04c0,-8.54937 6.93063,-15.48 15.48,-15.48h141.04c8.54937,0 15.48,6.93063 15.48,15.48v141.04c0,8.54937 -6.93063,15.48 -15.48,15.48z" fill="none" fill-rule="nonzero"></path><path d="M18.92,168.56c-8.54937,0 -15.48,-6.93063 -15.48,-15.48v-134.16c0,-8.54937 6.93063,-15.48 15.48,-15.48h134.16c8.54937,0 15.48,6.93063 15.48,15.48v134.16c0,8.54937 -6.93063,15.48 -15.48,15.48z" fill="none" fill-rule="nonzero"></path><path d="M17.2,172c-9.4993,0 -17.2,-7.7007 -17.2,-17.2v-137.6c0,-9.4993 7.7007,-17.2 17.2,-17.2h137.6c9.4993,0 17.2,7.7007 17.2,17.2v137.6c0,9.4993 -7.7007,17.2 -17.2,17.2z" fill="none" fill-rule="nonzero"></path><path d="M20.64,168.56c-9.4993,0 -17.2,-7.7007 -17.2,-17.2v-130.72c0,-9.4993 7.7007,-17.2 17.2,-17.2h130.72c9.4993,0 17.2,7.7007 17.2,17.2v130.72c0,9.4993 -7.7007,17.2 -17.2,17.2z" fill="none" fill-rule="nonzero"></path><path d="M18.06,172c-9.97426,0 -18.06,-8.08574 -18.06,-18.06v-135.88c0,-9.97426 8.08574,-18.06 18.06,-18.06h135.88c9.97426,0 18.06,8.08574 18.06,18.06v135.88c0,9.97426 -8.08574,18.06 -18.06,18.06z" fill="none" fill-rule="nonzero"></path><path d="M21.5,168.56c-9.97426,0 -18.06,-8.08574 -18.06,-18.06v-129c0,-9.97426 8.08574,-18.06 18.06,-18.06h129c9.97426,0 18.06,8.08574 18.06,18.06v129c0,9.97426 -8.08574,18.06 -18.06,18.06z" fill="none" fill-rule="nonzero"></path><path d="M18.92,172c-10.44923,0 -18.92,-8.47077 -18.92,-18.92v-134.16c0,-10.44923 8.47077,-18.92 18.92,-18.92h134.16c10.44923,0 18.92,8.47077 18.92,18.92v134.16c0,10.44923 -8.47077,18.92 -18.92,18.92z" fill="none" fill-rule="nonzero"></path><path d="M22.36,168.56c-10.44923,0 -18.92,-8.47077 -18.92,-18.92v-127.28c0,-10.44923 8.47077,-18.92 18.92,-18.92h127.28c10.44923,0 18.92,8.47077 18.92,18.92v127.28c0,10.44923 -8.47077,18.92 -18.92,18.92z" fill="none" fill-rule="nonzero"></path><path d="M20.64,172c-11.39916,0 -20.64,-9.24084 -20.64,-20.64v-130.72c0,-11.39916 9.24084,-20.64 20.64,-20.64h130.72c11.39916,0 20.64,9.24084 20.64,20.64v130.72c0,11.39916 -9.24084,20.64 -20.64,20.64z" fill="none" fill-rule="nonzero"></path><path d="M24.08,168.56c-11.39916,0 -20.64,-9.24084 -20.64,-20.64v-123.84c0,-11.39916 9.24084,-20.64 20.64,-20.64h123.84c11.39916,0 20.64,9.24084 20.64,20.64v123.84c0,11.39916 -9.24084,20.64 -20.64,20.64z" fill="none" fill-rule="nonzero"></path><path d="M23.22,172c-12.82405,0 -23.22,-10.39595 -23.22,-23.22v-125.56c0,-12.82405 10.39595,-23.22 23.22,-23.22h125.56c12.82405,0 23.22,10.39595 23.22,23.22v125.56c0,12.82405 -10.39595,23.22 -23.22,23.22z" fill="none" fill-rule="nonzero"></path><path d="M26.66,168.56c-12.82405,0 -23.22,-10.39595 -23.22,-23.22v-118.68c0,-12.82405 10.39595,-23.22 23.22,-23.22h118.68c12.82405,0 23.22,10.39595 23.22,23.22v118.68c0,12.82405 -10.39595,23.22 -23.22,23.22z" fill="none" fill-rule="nonzero"></path><path d="M22.36,172c-12.34909,0 -22.36,-10.01091 -22.36,-22.36v-127.28c0,-12.34909 10.01091,-22.36 22.36,-22.36h127.28c12.34909,0 22.36,10.01091 22.36,22.36v127.28c0,12.34909 -10.01091,22.36 -22.36,22.36z" fill="none" fill-rule="nonzero"></path><path d="M25.8,168.56c-12.34909,0 -22.36,-10.01091 -22.36,-22.36v-120.4c0,-12.34909 10.01091,-22.36 22.36,-22.36h120.4c12.34909,0 22.36,10.01091 22.36,22.36v120.4c0,12.34909 -10.01091,22.36 -22.36,22.36z" fill="none" fill-rule="nonzero"></path><path d="M23.22,172c-12.82405,0 -23.22,-10.39595 -23.22,-23.22v-125.56c0,-12.82405 10.39595,-23.22 23.22,-23.22h125.56c12.82405,0 23.22,10.39595 23.22,23.22v125.56c0,12.82405 -10.39595,23.22 -23.22,23.22z" fill="none" fill-rule="nonzero"></path><path d="M26.66,168.56c-12.82405,0 -23.22,-10.39595 -23.22,-23.22v-118.68c0,-12.82405 10.39595,-23.22 23.22,-23.22h118.68c12.82405,0 23.22,10.39595 23.22,23.22v118.68c0,12.82405 -10.39595,23.22 -23.22,23.22z" fill="none" fill-rule="nonzero"></path><path d="M24.08,172c-13.29902,0 -24.08,-10.78098 -24.08,-24.08v-123.84c0,-13.29902 10.78098,-24.08 24.08,-24.08h123.84c13.29902,0 24.08,10.78098 24.08,24.08v123.84c0,13.29902 -10.78098,24.08 -24.08,24.08z" fill="none" fill-rule="nonzero"></path><path d="M27.52,168.56c-13.29902,0 -24.08,-10.78098 -24.08,-24.08v-116.96c0,-13.29902 10.78098,-24.08 24.08,-24.08h116.96c13.29902,0 24.08,10.78098 24.08,24.08v116.96c0,13.29902 -10.78098,24.08 -24.08,24.08z" fill="none" fill-rule="nonzero"></path><path d="M24.94,172c-13.77398,0 -24.94,-11.16602 -24.94,-24.94v-122.12c0,-13.77398 11.16602,-24.94 24.94,-24.94h122.12c13.77398,0 24.94,11.16602 24.94,24.94v122.12c0,13.77398 -11.16602,24.94 -24.94,24.94z" fill="none" fill-rule="nonzero"></path><path d="M28.38,168.56c-13.77398,0 -24.94,-11.16602 -24.94,-24.94v-115.24c0,-13.77398 11.16602,-24.94 24.94,-24.94h115.24c13.77398,0 24.94,11.16602 24.94,24.94v115.24c0,13.77398 -11.16602,24.94 -24.94,24.94z" fill="none" fill-rule="nonzero"></path><path d="M24.08,172c-13.29902,0 -24.08,-10.78098 -24.08,-24.08v-123.84c0,-13.29902 10.78098,-24.08 24.08,-24.08h123.84c13.29902,0 24.08,10.78098 24.08,24.08v123.84c0,13.29902 -10.78098,24.08 -24.08,24.08z" fill="none" fill-rule="nonzero"></path><path d="M27.52,168.56c-13.29902,0 -24.08,-10.78098 -24.08,-24.08v-116.96c0,-13.29902 10.78098,-24.08 24.08,-24.08h116.96c13.29902,0 24.08,10.78098 24.08,24.08v116.96c0,13.29902 -10.78098,24.08 -24.08,24.08z" fill="none" fill-rule="nonzero"></path><path d="M23.22,172c-12.82405,0 -23.22,-10.39595 -23.22,-23.22v-125.56c0,-12.82405 10.39595,-23.22 23.22,-23.22h125.56c12.82405,0 23.22,10.39595 23.22,23.22v125.56c0,12.82405 -10.39595,23.22 -23.22,23.22z" fill="none" fill-rule="nonzero"></path><path d="M26.66,168.56c-12.82405,0 -23.22,-10.39595 -23.22,-23.22v-118.68c0,-12.82405 10.39595,-23.22 23.22,-23.22h118.68c12.82405,0 23.22,10.39595 23.22,23.22v118.68c0,12.82405 -10.39595,23.22 -23.22,23.22z" fill="none" fill-rule="nonzero"></path><path d="M22.36,172c-12.34909,0 -22.36,-10.01091 -22.36,-22.36v-127.28c0,-12.34909 10.01091,-22.36 22.36,-22.36h127.28c12.34909,0 22.36,10.01091 22.36,22.36v127.28c0,12.34909 -10.01091,22.36 -22.36,22.36z" fill="none" fill-rule="nonzero"></path><path d="M25.8,168.56c-12.34909,0 -22.36,-10.01091 -22.36,-22.36v-120.4c0,-12.34909 10.01091,-22.36 22.36,-22.36h120.4c12.34909,0 22.36,10.01091 22.36,22.36v120.4c0,12.34909 -10.01091,22.36 -22.36,22.36z" fill="none" fill-rule="nonzero"></path><path d="M21.5,172c-11.87412,0 -21.5,-9.62588 -21.5,-21.5v-129c0,-11.87412 9.62588,-21.5 21.5,-21.5h129c11.87412,0 21.5,9.62588 21.5,21.5v129c0,11.87412 -9.62588,21.5 -21.5,21.5z" fill="none" fill-rule="nonzero"></path><path d="M24.94,168.56c-11.87412,0 -21.5,-9.62588 -21.5,-21.5v-122.12c0,-11.87412 9.62588,-21.5 21.5,-21.5h122.12c11.87412,0 21.5,9.62588 21.5,21.5v122.12c0,11.87412 -9.62588,21.5 -21.5,21.5z" fill="none" fill-rule="nonzero"></path><path d="M20.64,172c-11.39916,0 -20.64,-9.24084 -20.64,-20.64v-130.72c0,-11.39916 9.24084,-20.64 20.64,-20.64h130.72c11.39916,0 20.64,9.24084 20.64,20.64v130.72c0,11.39916 -9.24084,20.64 -20.64,20.64z" fill="none" fill-rule="nonzero"></path><path d="M24.08,168.56c-11.39916,0 -20.64,-9.24084 -20.64,-20.64v-123.84c0,-11.39916 9.24084,-20.64 20.64,-20.64h123.84c11.39916,0 20.64,9.24084 20.64,20.64v123.84c0,11.39916 -9.24084,20.64 -20.64,20.64z" fill="none" fill-rule="nonzero"></path><path d="M21.5,172c-11.87412,0 -21.5,-9.62588 -21.5,-21.5v-129c0,-11.87412 9.62588,-21.5 21.5,-21.5h129c11.87412,0 21.5,9.62588 21.5,21.5v129c0,11.87412 -9.62588,21.5 -21.5,21.5z" fill="none" fill-rule="nonzero"></path><path d="M24.94,168.56c-11.87412,0 -21.5,-9.62588 -21.5,-21.5v-122.12c0,-11.87412 9.62588,-21.5 21.5,-21.5h122.12c11.87412,0 21.5,9.62588 21.5,21.5v122.12c0,11.87412 -9.62588,21.5 -21.5,21.5z" fill="none" fill-rule="nonzero"></path><path d="M21.5,172c-11.87412,0 -21.5,-9.62588 -21.5,-21.5v-129c0,-11.87412 9.62588,-21.5 21.5,-21.5h129c11.87412,0 21.5,9.62588 21.5,21.5v129c0,11.87412 -9.62588,21.5 -21.5,21.5z" fill="none" fill-rule="nonzero"></path><path d="M24.94,168.56c-11.87412,0 -21.5,-9.62588 -21.5,-21.5v-122.12c0,-11.87412 9.62588,-21.5 21.5,-21.5h122.12c11.87412,0 21.5,9.62588 21.5,21.5v122.12c0,11.87412 -9.62588,21.5 -21.5,21.5z" fill="none" fill-rule="nonzero"></path><path d="M21.5,172c-11.87412,0 -21.5,-9.62588 -21.5,-21.5v-129c0,-11.87412 9.62588,-21.5 21.5,-21.5h129c11.87412,0 21.5,9.62588 21.5,21.5v129c0,11.87412 -9.62588,21.5 -21.5,21.5z" fill="none" fill-rule="nonzero"></path><path d="M24.94,168.56c-11.87412,0 -21.5,-9.62588 -21.5,-21.5v-122.12c0,-11.87412 9.62588,-21.5 21.5,-21.5h122.12c11.87412,0 21.5,9.62588 21.5,21.5v122.12c0,11.87412 -9.62588,21.5 -21.5,21.5z" fill="none" fill-rule="nonzero"></path><path d="M21.5,172c-11.87412,0 -21.5,-9.62588 -21.5,-21.5v-129c0,-11.87412 9.62588,-21.5 21.5,-21.5h129c11.87412,0 21.5,9.62588 21.5,21.5v129c0,11.87412 -9.62588,21.5 -21.5,21.5z" fill="none" fill-rule="nonzero"></path><path d="M24.94,168.56c-11.87412,0 -21.5,-9.62588 -21.5,-21.5v-122.12c0,-11.87412 9.62588,-21.5 21.5,-21.5h122.12c11.87412,0 21.5,9.62588 21.5,21.5v122.12c0,11.87412 -9.62588,21.5 -21.5,21.5z" fill="none" fill-rule="nonzero"></path><path d="M21.5,172c-11.87412,0 -21.5,-9.62588 -21.5,-21.5v-129c0,-11.87412 9.62588,-21.5 21.5,-21.5h129c11.87412,0 21.5,9.62588 21.5,21.5v129c0,11.87412 -9.62588,21.5 -21.5,21.5z" fill="none" fill-rule="nonzero"></path><path d="M24.94,168.56c-11.87412,0 -21.5,-9.62588 -21.5,-21.5v-122.12c0,-11.87412 9.62588,-21.5 21.5,-21.5h122.12c11.87412,0 21.5,9.62588 21.5,21.5v122.12c0,11.87412 -9.62588,21.5 -21.5,21.5z" fill="none" fill-rule="nonzero"></path><path d="M21.5,172c-11.87412,0 -21.5,-9.62588 -21.5,-21.5v-129c0,-11.87412 9.62588,-21.5 21.5,-21.5h129c11.87412,0 21.5,9.62588 21.5,21.5v129c0,11.87412 -9.62588,21.5 -21.5,21.5z" fill="none" fill-rule="nonzero"></path><path d="M24.94,168.56c-11.87412,0 -21.5,-9.62588 -21.5,-21.5v-122.12c0,-11.87412 9.62588,-21.5 21.5,-21.5h122.12c11.87412,0 21.5,9.62588 21.5,21.5v122.12c0,11.87412 -9.62588,21.5 -21.5,21.5z" fill="none" fill-rule="nonzero"></path><path d="M21.5,172c-11.87412,0 -21.5,-9.62588 -21.5,-21.5v-129c0,-11.87412 9.62588,-21.5 21.5,-21.5h129c11.87412,0 21.5,9.62588 21.5,21.5v129c0,11.87412 -9.62588,21.5 -21.5,21.5z" fill="none" fill-rule="nonzero"></path><path d="M24.94,168.56c-11.87412,0 -21.5,-9.62588 -21.5,-21.5v-122.12c0,-11.87412 9.62588,-21.5 21.5,-21.5h122.12c11.87412,0 21.5,9.62588 21.5,21.5v122.12c0,11.87412 -9.62588,21.5 -21.5,21.5z" fill="none" fill-rule="nonzero"></path><path d="M21.5,172c-11.87412,0 -21.5,-9.62588 -21.5,-21.5v-129c0,-11.87412 9.62588,-21.5 21.5,-21.5h129c11.87412,0 21.5,9.62588 21.5,21.5v129c0,11.87412 -9.62588,21.5 -21.5,21.5z" fill="none" fill-rule="nonzero"></path><path d="M24.94,168.56c-11.87412,0 -21.5,-9.62588 -21.5,-21.5v-122.12c0,-11.87412 9.62588,-21.5 21.5,-21.5h122.12c11.87412,0 21.5,9.62588 21.5,21.5v122.12c0,11.87412 -9.62588,21.5 -21.5,21.5z" fill="none" fill-rule="nonzero"></path><path d="M21.5,172c-11.87412,0 -21.5,-9.62588 -21.5,-21.5v-129c0,-11.87412 9.62588,-21.5 21.5,-21.5h129c11.87412,0 21.5,9.62588 21.5,21.5v129c0,11.87412 -9.62588,21.5 -21.5,21.5z" fill="none" fill-rule="nonzero"></path><path d="M24.94,168.56c-11.87412,0 -21.5,-9.62588 -21.5,-21.5v-122.12c0,-11.87412 9.62588,-21.5 21.5,-21.5h122.12c11.87412,0 21.5,9.62588 21.5,21.5v122.12c0,11.87412 -9.62588,21.5 -21.5,21.5z" fill="none" fill-rule="nonzero"></path><path d="M21.5,172c-11.87412,0 -21.5,-9.62588 -21.5,-21.5v-129c0,-11.87412 9.62588,-21.5 21.5,-21.5h129c11.87412,0 21.5,9.62588 21.5,21.5v129c0,11.87412 -9.62588,21.5 -21.5,21.5z" fill="none" fill-rule="nonzero"></path><path d="M24.94,168.56c-11.87412,0 -21.5,-9.62588 -21.5,-21.5v-122.12c0,-11.87412 9.62588,-21.5 21.5,-21.5h122.12c11.87412,0 21.5,9.62588 21.5,21.5v122.12c0,11.87412 -9.62588,21.5 -21.5,21.5z" fill="none" fill-rule="nonzero"></path><path d="M21.5,172c-11.87412,0 -21.5,-9.62588 -21.5,-21.5v-129c0,-11.87412 9.62588,-21.5 21.5,-21.5h129c11.87412,0 21.5,9.62588 21.5,21.5v129c0,11.87412 -9.62588,21.5 -21.5,21.5z" fill="none" fill-rule="nonzero"></path><path d="M24.94,168.56c-11.87412,0 -21.5,-9.62588 -21.5,-21.5v-122.12c0,-11.87412 9.62588,-21.5 21.5,-21.5h122.12c11.87412,0 21.5,9.62588 21.5,21.5v122.12c0,11.87412 -9.62588,21.5 -21.5,21.5z" fill="none" fill-rule="nonzero"></path><path d="M21.5,172c-11.87412,0 -21.5,-9.62588 -21.5,-21.5v-129c0,-11.87412 9.62588,-21.5 21.5,-21.5h129c11.87412,0 21.5,9.62588 21.5,21.5v129c0,11.87412 -9.62588,21.5 -21.5,21.5z" fill="none" fill-rule="nonzero"></path><path d="M24.94,168.56c-11.87412,0 -21.5,-9.62588 -21.5,-21.5v-122.12c0,-11.87412 9.62588,-21.5 21.5,-21.5h122.12c11.87412,0 21.5,9.62588 21.5,21.5v122.12c0,11.87412 -9.62588,21.5 -21.5,21.5z" fill="none" fill-rule="nonzero"></path></g></svg>