<svg xmlns="http://www.w3.org/2000/svg" x="0px" y="0px"
width="24" height="24"
viewBox="0 0 172 172"
style=" fill:#000000;"><g fill="none" fill-rule="nonzero" stroke="none" stroke-width="1" stroke-linecap="butt" stroke-linejoin="miter" stroke-miterlimit="10" stroke-dasharray="" stroke-dashoffset="0" font-family="none" font-weight="none" font-size="none" text-anchor="none" style="mix-blend-mode: normal"><path d="M0,172v-172h172v172z" fill="none"></path><path d="M21.5,172c-11.87412,0 -21.5,-9.62588 -21.5,-21.5v-129c0,-11.87412 9.62588,-21.5 21.5,-21.5h129c11.87412,0 21.5,9.62588 21.5,21.5v129c0,11.87412 -9.62588,21.5 -21.5,21.5zM147.06,168.56c11.87412,0 21.5,-9.62588 21.5,-21.5v-122.12c0,-11.87412 -9.62588,-21.5 -21.5,-21.5h-122.12c-11.87412,0 -21.5,9.62588 -21.5,21.5v122.12c0,11.87412 9.62588,21.5 21.5,21.5z" fill="#6db4c7"></path><path d="M21.5,172c-11.87412,0 -21.5,-9.62588 -21.5,-21.5v-129c0,-11.87412 9.62588,-21.5 21.5,-21.5h129c11.87412,0 21.5,9.62588 21.5,21.5v129c0,11.87412 -9.62588,21.5 -21.5,21.5z" fill="none"></path><path d="M24.94,168.56c-11.87412,0 -21.5,-9.62588 -21.5,-21.5v-122.12c0,-11.87412 9.62588,-21.5 21.5,-21.5h122.12c11.87412,0 21.5,9.62588 21.5,21.5v122.12c0,11.87412 -9.62588,21.5 -21.5,21.5z" fill="none"></path><g fill="#6db4c7"><path d="M78.94315,22.15108c-29.57297,3.21445 -53.35993,27.00141 -56.57438,55.93149c-3.21445,30.21586 14.1436,57.21727 40.50211,67.50352c1.92867,0.64289 3.85734,-0.64289 3.85734,-3.21445v-10.28625c0,0 -2.57156,0.64289 -5.78602,0.64289c-9.00047,0 -12.85781,-7.71469 -13.5007,-12.21492c-0.64289,-2.57156 -1.92867,-4.50023 -3.85734,-6.42891c-1.92867,-0.64289 -2.57156,-0.64289 -2.57156,-1.28578c0,-1.28578 1.92867,-1.28578 2.57156,-1.28578c3.85734,0 7.0718,4.50023 8.35758,6.42891c3.21445,5.14313 7.0718,6.42891 9.00047,6.42891c2.57156,0 4.50023,-0.64289 5.78602,-1.28578c0.64289,-4.50023 2.57156,-9.00047 6.42891,-11.57203c-14.78649,-3.21445 -25.71563,-11.57203 -25.71563,-25.71563c0,-7.0718 3.21445,-14.1436 7.71469,-19.28672c-0.64289,-1.28578 -1.28578,-4.50023 -1.28578,-9.00047c0,-2.57156 0,-6.42891 1.92867,-10.28625c0,0 9.00047,0 18.00094,8.35758c3.21445,-1.28578 7.71469,-1.92867 12.21492,-1.92867c4.50023,0 9.00047,0.64289 12.85781,1.92867c8.35758,-8.35758 18.00094,-8.35758 18.00094,-8.35758c1.28578,3.85734 1.28578,7.71469 1.28578,10.28625c0,5.14313 -0.64289,7.71469 -1.28578,9.00047c4.50023,5.14313 7.71469,11.57203 7.71469,19.28672c0,14.1436 -10.92914,22.50117 -25.71563,25.71563c3.85734,3.21445 6.42891,9.00047 6.42891,14.78649v16.71516c0,1.92867 1.92867,3.85734 4.50023,3.21445c23.78696,-9.64336 40.50211,-32.78743 40.50211,-59.78884c0,-38.57344 -32.78743,-68.78931 -71.36087,-64.28907z"></path></g><path d="M21.5,172c-11.87412,0 -21.5,-9.62588 -21.5,-21.5v-129c0,-11.87412 9.62588,-21.5 21.5,-21.5h129c11.87412,0 21.5,9.62588 21.5,21.5v129c0,11.87412 -9.62588,21.5 -21.5,21.5z" fill="none"></path><path d="M24.94,168.56c-11.87412,0 -21.5,-9.62588 -21.5,-21.5v-122.12c0,-11.87412 9.62588,-21.5 21.5,-21.5h122.12c11.87412,0 21.5,9.62588 21.5,21.5v122.12c0,11.87412 -9.62588,21.5 -21.5,21.5z" fill="none"></path><path d="M21.5,172c-11.87412,0 -21.5,-9.62588 -21.5,-21.5v-129c0,-11.87412 9.62588,-21.5 21.5,-21.5h129c11.87412,0 21.5,9.62588 21.5,21.5v129c0,11.87412 -9.62588,21.5 -21.5,21.5z" fill="none"></path><path d="M24.94,168.56c-11.87412,0 -21.5,-9.62588 -21.5,-21.5v-122.12c0,-11.87412 9.62588,-21.5 21.5,-21.5h122.12c11.87412,0 21.5,9.62588 21.5,21.5v122.12c0,11.87412 -9.62588,21.5 -21.5,21.5z" fill="none"></path></g></svg>