<svg id="SvgjsSvg1001" width="288" height="288" xmlns="http://www.w3.org/2000/svg" version="1.1"><defs id="SvgjsDefs1002"></defs><g id="SvgjsG1008" transform="matrix(0.9167,0,0,0.9167,11.947318245220202,11.995200000000011)">
<svg xmlns="http://www.w3.org/2000/svg" version="1.1" id="Layer_1" x="0px" y="0px" width="288" height="288" viewBox="0 0 24 24" xml:space="preserve"><path d="M19.7 23.5H4.3c-2.1 0-3.8-1.7-3.8-3.8V4.3C.5 2.2 2.2.5 4.3.5h15.3c2.1 0 3.8 1.7 3.8 3.8v15.3c.1 2.2-1.6 3.9-3.7 3.9zM4.3 1.5c-1.6 0-2.8 1.3-2.8 2.8v15.3c0 1.6 1.3 2.8 2.8 2.8h15.3c1.6 0 2.8-1.3 2.8-2.8V4.3c0-1.6-1.3-2.8-2.8-2.8H4.3z" fill="#6db4c7" class="color000 svgShape"></path><path d="M12 18.6c-.3 0-.6-.1-.8-.2l-3.6-2.1c-.4-.2-.7-.7-.8-1.2L5.7 7.3c-.1-.5.1-1 .4-1.3.3-.4.7-.6 1.2-.6h9.4c.5 0 .9.2 1.2.6.3.3.4.8.4 1.3l-1.1 7.8c-.1.5-.4.9-.8 1.2l-3.6 2.1c-.2.1-.5.2-.8.2zM7.3 6.4c-.2 0-.3.1-.5.2-.1.2-.1.4-.1.5L7.8 15c0 .2.1.3.3.4l3.6 2.1c.2.1.4.1.6 0l3.6-2.1c.2-.1.3-.3.3-.4l1.1-7.8c0-.2 0-.3-.1-.5-.1-.1-.3-.2-.5-.2H7.3z" fill="#6db4c7" class="color000 svgShape"></path><path d="M9.3 11.7c-.2 0-.5-.2-.5-.4l-.4-2.8c0-.1 0-.3.1-.4.1-.1.2-.2.4-.2h6.3c.3 0 .5.2.5.5s-.2.5-.5.5H9.4l.3 2.2c.1.3-.1.6-.4.6z" fill="#6db4c7" class="color000 svgShape"></path><path d="M12 15.5c-.1 0-.2 0-.2-.1L9.4 14c-.1-.1-.2-.2-.2-.4L9 13c0-.3.2-.5.4-.6.3 0 .5.2.6.4l.1.5 1.9 1.1 1.9-1.1.3-2.2c0-.3.3-.5.6-.4.3 0 .5.3.4.6l-.3 2.4c0 .2-.1.3-.2.4l-2.4 1.4H12z" fill="#6db4c7" class="color000 svgShape"></path><g fill="#6db4c7" class="color000 svgShape"><path d="M14.7 11.7H9.3c-.3 0-.5-.2-.5-.5s.2-.5.5-.5h5.5c.3 0 .5.2.5.5s-.3.5-.6.5z" fill="#6db4c7" class="color000 svgShape"></path></g></svg></g></svg>