<svg xmlns="http://www.w3.org/2000/svg" x="0px" y="0px"
width="50" height="50"
viewBox="0 0 172 172"
style=" fill:#000000;"><g fill="none" fill-rule="nonzero" stroke="none" stroke-width="1" stroke-linecap="butt" stroke-linejoin="miter" stroke-miterlimit="10" stroke-dasharray="" stroke-dashoffset="0" font-family="none" font-weight="none" font-size="none" text-anchor="none" style="mix-blend-mode: normal"><path d="M0,172v-172h172v172z" fill="none"></path><path d="M21.5,172c-11.87412,0 -21.5,-9.62588 -21.5,-21.5v-129c0,-11.87412 9.62588,-21.5 21.5,-21.5h129c11.87412,0 21.5,9.62588 21.5,21.5v129c0,11.87412 -9.62588,21.5 -21.5,21.5zM147.06,168.56c11.87412,0 21.5,-9.62588 21.5,-21.5v-122.12c0,-11.87412 -9.62588,-21.5 -21.5,-21.5h-122.12c-11.87412,0 -21.5,9.62588 -21.5,21.5v122.12c0,11.87412 9.62588,21.5 21.5,21.5z" fill="#6db4c7"></path><g fill="#6db4c7"><g id="surface1"><path d="M100.2321,21.69456c-0.30839,0.04569 -0.61678,0.13706 -0.91375,0.27412c-2.51281,1.24498 -5.36828,4.94567 -5.91653,5.67667c-0.03427,0.04569 -0.06853,0.09137 -0.09138,0.13706c-2.8212,4.22609 -4.32889,9.17177 -4.386,14.32303c-0.03427,3.8606 0.71958,7.68692 2.25011,11.37619c3.56363,8.55499 10.965,15.63655 19.77127,18.94889c0.29697,0.1028 0.58252,0.2056 1.0965,0.38835c0.04569,0.02284 0.47972,0.1599 0.54825,0.17133l0.31981,0.11422c0.45688,0.14848 0.92517,0.29697 1.38205,0.38834c2.31864,0.4683 4.58017,0.731 6.70464,0.79953c0.3655,0 0.731,0.01142 1.0965,0.01142c16.02489,0 22.23839,-11.30765 24.30575,-15.07687c0.2056,-0.3655 0.35408,-0.66247 0.49114,-0.84522c0,-0.01142 0,-0.01142 0.01142,-0.02285c0.90233,-1.33636 0.55967,-3.15244 -0.77669,-4.06619c-1.32494,-0.90233 -3.14102,-0.55967 -4.05477,0.77669h-0.01142c-4.27178,6.29345 -11.58178,8.20091 -21.71298,5.6881c-0.75385,-0.18275 -1.57622,-0.4683 -2.30722,-0.74242c-0.95944,-0.34265 -1.91888,-0.74242 -2.80978,-1.17645c-1.77039,-0.87949 -3.43798,-1.9303 -4.94567,-3.09533c-8.90906,-6.91023 -12.39274,-21.29037 -7.18436,-29.59408c0.69674,-1.10792 0.5711,-2.54708 -0.30839,-3.51794c-0.66247,-0.731 -1.62191,-1.06223 -2.5585,-0.93659zM74.32728,27.51972c-0.66247,-0.01142 -1.33636,0.2056 -1.88461,0.66247c-4.42026,3.59789 -8.94333,9.49158 -9.1375,9.73144c-0.02284,0.04569 -0.04569,0.07995 -0.07995,0.12564c-7.99531,11.63889 -8.60067,28.20061 -1.53053,42.19241c1.10792,2.21584 2.36433,4.32889 3.70069,6.27061l0.39977,0.5711c1.13077,1.65617 2.39859,3.52936 4.0205,4.99136c0.55967,0.63962 1.16503,1.2564 1.75897,1.85034l0.28555,0.29697l0.23986,0.23986c0.60536,0.58252 1.22214,1.17645 1.86177,1.74755h0.01142c0.04569,0.06853 0.11422,0.11422 0.17133,0.17133c0.71958,0.63963 1.45058,1.24498 2.42144,2.01025l0.2627,0.19417c0.75385,0.60536 1.51911,1.17645 2.30722,1.73613c0.07995,0.05711 0.1599,0.11422 0.23986,0.17133c0.27413,0.18275 0.54825,0.35408 0.82238,0.54825l0.27413,0.18275l0.31981,0.2056c0.58252,0.38834 1.15361,0.74242 1.96456,1.21072c0.52541,0.31981 1.08508,0.63962 1.45058,0.82237c0.1599,0.09138 0.33123,0.18275 0.731,0.39977l0.8909,0.4683c0.04569,0.02285 0.25128,0.11422 0.29697,0.13706c0.58252,0.29697 1.18787,0.58252 1.79323,0.85664l0.92517,0.41119c0.60536,0.2627 1.22214,0.51398 1.97599,0.79953l0.34265,0.12564c0.02285,0.02285 0.30839,0.12564 0.33123,0.13706c0.54825,0.19417 1.10792,0.38835 1.6676,0.5711l1.27925,0.42261c0.63962,0.21702 1.38205,0.4683 2.193,0.60536c3.98623,0.66247 7.85825,1.00512 11.52467,1.00512c0.43403,0 0.86806,-0.01142 1.29067,-0.01142c32.27822,-0.70816 40.6733,-28.13208 40.75325,-28.4062c0.39977,-1.38205 -0.25128,-2.85547 -1.55337,-3.47225c-1.30209,-0.61678 -2.85547,-0.18275 -3.66642,1.00513c-8.17806,11.94728 -23.64328,16.99575 -39.39405,12.83819c-0.731,-0.18275 -1.43916,-0.38834 -2.31864,-0.67389c-0.14848,-0.04569 -0.27412,-0.09138 -0.51398,-0.18275c-0.51398,-0.1599 -1.01655,-0.33123 -1.58764,-0.54825l-0.81095,-0.30839c-0.4683,-0.18275 -0.93659,-0.3655 -1.50769,-0.61678l-0.37692,-0.17133c-0.69673,-0.29697 -1.37062,-0.6282 -1.97598,-0.92517l-1.6676,-0.86806c-0.37692,-0.18275 -0.70815,-0.38834 -1.22214,-0.69673l-0.28555,-0.15991l-0.28555,-0.17133c-0.42261,-0.25128 -0.84522,-0.51399 -1.23356,-0.78811l-0.27412,-0.17133c-0.02284,-0.01142 -0.25128,-0.17133 -0.27413,-0.19417c-0.34265,-0.21701 -0.67389,-0.43403 -0.9937,-0.63963c-0.70815,-0.50256 -1.40489,-1.02797 -2.21584,-1.66759l-0.31981,-0.2627c-7.53844,-6.01933 -13.11231,-14.06033 -15.72792,-22.68384c-2.43286,-7.91536 -0.6282,-18.275 4.83145,-27.70947c0.70816,-1.22214 0.44545,-2.77552 -0.63962,-3.68927c-0.53683,-0.45688 -1.1993,-0.69673 -1.86176,-0.69673zM42.15186,36.29172c-0.69673,0 -1.40489,0.25128 -1.96456,0.75385c-5.5853,5.0142 -9.7657,11.51325 -10.22258,12.25567c-11.94728,17.39552 -9.64006,44.43109 -1.43916,60.95855c0.15991,0.34266 0.33123,0.67389 0.50256,1.00512l0.11422,0.18275c0.14848,0.33123 0.31981,0.67389 0.37692,0.74242c0.09137,0.21702 0.22844,0.45687 0.28555,0.52541c0.13706,0.28555 0.27412,0.53683 0.52541,0.97086l0.93659,1.61048c0.13706,0.21702 0.27412,0.44545 0.31981,0.52541c0.18275,0.29697 0.37692,0.60536 0.5711,0.91375l0.45687,0.731c0.13706,0.21702 0.27412,0.41119 0.3655,0.5254c0.45687,0.70816 0.91375,1.41631 1.41631,2.0902c0.02284,0.03427 0.04569,0.05711 0.06853,0.07995l0.18275,0.25128c0.41119,0.59394 0.8338,1.16503 1.21072,1.63333l1.66759,2.11305c0.02285,0.02285 0.2056,0.23986 0.21702,0.2627l0.23986,0.27412c0.50256,0.61678 1.03939,1.23356 1.57622,1.8275c0.07995,0.09138 0.1599,0.17133 0.23986,0.2627c0.51398,0.55967 1.03939,1.11934 1.58764,1.70186l0.5254,0.50256c0.43403,0.45687 0.86806,0.90233 1.32494,1.32494c0,0.01142 0.21702,0.21702 0.21702,0.21702l0.45688,0.42261c0.54825,0.52541 1.11934,1.05081 1.55337,1.41631c0.02284,0.03427 0.43403,0.38835 0.4683,0.41119c0.53683,0.47972 1.07366,0.9366 1.62191,1.38205l2.79836,2.21585c0.4683,0.34265 0.94802,0.68531 1.49627,1.08508c0.18275,0.13706 0.37692,0.27412 0.57109,0.39976c0.07995,0.06853 0.17133,0.13706 0.22844,0.17133l2.10162,1.40489c0.76527,0.50256 1.53053,0.97086 2.46713,1.53053l0.50256,0.28555c0.58252,0.34265 1.17645,0.68531 1.73613,0.98228c0.33123,0.18275 0.66247,0.34266 0.94802,0.49114c0.39977,0.21702 0.8338,0.45687 1.49627,0.77669c0.05711,0.03427 0.5254,0.2627 0.58251,0.28555c0.66247,0.33123 1.33636,0.63963 2.18158,1.01655c0,0.01142 0.27413,0.13706 0.27413,0.13706c0.77669,0.33124 1.53053,0.65105 2.52423,1.05081c0.15991,0.06853 0.31981,0.12564 0.35408,0.13706c0.70816,0.27412 1.45058,0.54825 2.05594,0.76527c0.05711,0.02285 0.3655,0.14848 0.42261,0.17133c0.81095,0.27413 1.61049,0.53683 2.63845,0.85664c0.17133,0.05711 0.35408,0.11422 0.37692,0.11422l0.58252,0.18275c0.70816,0.21702 1.41631,0.44545 2.18158,0.59394c5.43681,0.9937 10.74798,1.50769 15.77361,1.50769h0.01142c41.88402,0 55.22477,-33.70595 55.36183,-34.04861c0.51398,-1.3592 -0.04569,-2.88973 -1.32494,-3.59789c-1.2564,-0.69673 -2.85547,-0.3655 -3.74637,0.78811c-10.74798,14.1517 -31.02181,19.40577 -54.23106,14.07175c-0.55967,-0.13706 -1.13077,-0.29697 -1.69044,-0.4683l-1.0965,-0.33123c-0.74242,-0.22844 -1.48484,-0.47972 -2.20442,-0.731c-0.01142,0 -0.34266,-0.12564 -0.34266,-0.12564c-0.63963,-0.21702 -1.27925,-0.4683 -1.83892,-0.68531l-0.63962,-0.25128c-0.70815,-0.28555 -1.41631,-0.58252 -2.10163,-0.89091l-0.39977,-0.17133c-0.61678,-0.28555 -1.21072,-0.55967 -1.80465,-0.85664c-0.04569,-0.02285 -0.51398,-0.25128 -0.55967,-0.2627c-0.41119,-0.2056 -0.82238,-0.42261 -1.34778,-0.70816l-2.38717,-1.27925c-0.23986,-0.1599 -0.49114,-0.30839 -0.731,-0.43403c-0.71958,-0.44545 -1.462,-0.89091 -2.193,-1.3592c-0.17133,-0.1028 -0.31981,-0.21702 -0.60536,-0.41119c-0.50256,-0.31981 -0.9937,-0.65105 -1.71328,-1.15361l-0.28555,-0.2056c-0.49114,-0.34265 -0.97086,-0.70815 -1.37063,-1.00513c-0.25128,-0.18275 -0.50256,-0.38834 -0.91375,-0.69673c-0.3655,-0.28555 -0.731,-0.55967 -1.07366,-0.8338l-0.63963,-0.52541c-0.53683,-0.43403 -1.03939,-0.8909 -1.5648,-1.33636c-0.06853,-0.06853 -0.12564,-0.11422 -0.20559,-0.17133c-0.58252,-0.53683 -1.17645,-1.07365 -1.88461,-1.74755l-2.06736,-2.05594c-0.50256,-0.51398 -1.00513,-1.03939 -1.57622,-1.66759c-0.52541,-0.58252 -1.02797,-1.16503 -1.70186,-1.96456l-1.23356,-1.50769c-0.14848,-0.21702 -0.30839,-0.43403 -0.50256,-0.66247c-0.42261,-0.57109 -0.84522,-1.13077 -1.26783,-1.7247c-11.37619,-15.67081 -14.34588,-48.38306 -5.4825,-60.36461c0.8909,-1.1993 0.731,-2.88973 -0.38835,-3.90628c-0.54825,-0.50256 -1.2564,-0.75385 -1.95314,-0.75385z"></path></g></g><path d="M0,172v-172h172v172z" fill="none"></path><path d="M3.44,168.56v-165.12h165.12v165.12z" fill="none"></path><path d="M0,172v-172h172v172z" fill="none"></path><path d="M3.44,168.56v-165.12h165.12v165.12z" fill="none"></path><path d="M0,172v-172h172v172z" fill="none"></path><path d="M3.44,168.56v-165.12h165.12v165.12z" fill="none"></path><path d="M0,172v-172h172v172z" fill="none"></path><path d="M3.44,168.56v-165.12h165.12v165.12z" fill="none"></path><path d="M0,172v-172h172v172z" fill="none"></path><path d="M3.44,168.56v-165.12h165.12v165.12z" fill="none"></path><path d="M0,172v-172h172v172z" fill="none"></path><path d="M3.44,168.56v-165.12h165.12v165.12z" fill="none"></path><path d="M0,172v-172h172v172z" fill="none"></path><path d="M3.44,168.56v-165.12h165.12v165.12z" fill="none"></path><path d="M0,172v-172h172v172z" fill="none"></path><path d="M3.44,168.56v-165.12h165.12v165.12z" fill="none"></path><path d="M0,172v-172h172v172z" fill="none"></path><path d="M3.44,168.56v-165.12h165.12v165.12z" fill="none"></path><path d="M0,172v-172h172v172z" fill="none"></path><path d="M3.44,168.56v-165.12h165.12v165.12z" fill="none"></path><path d="M0,172v-172h172v172z" fill="none"></path><path d="M3.44,168.56v-165.12h165.12v165.12z" fill="none"></path><path d="M0,172v-172h172v172z" fill="none"></path><path d="M3.44,168.56v-165.12h165.12v165.12z" fill="none"></path><path d="M0,172v-172h172v172z" fill="none"></path><path d="M3.44,168.56v-165.12h165.12v165.12z" fill="none"></path><path d="M0,172v-172h172v172z" fill="none"></path><path d="M3.44,168.56v-165.12h165.12v165.12z" fill="none"></path><path d="M0,172v-172h172v172z" fill="none"></path><path d="M3.44,168.56v-165.12h165.12v165.12z" fill="none"></path><path d="M0,172v-172h172v172z" fill="none"></path><path d="M3.44,168.56v-165.12h165.12v165.12z" fill="none"></path><path d="M0,172v-172h172v172z" fill="none"></path><path d="M3.44,168.56v-165.12h165.12v165.12z" fill="none"></path><path d="M0,172v-172h172v172z" fill="none"></path><path d="M3.44,168.56v-165.12h165.12v165.12z" fill="none"></path><path d="M0,172v-172h172v172z" fill="none"></path><path d="M3.44,168.56v-165.12h165.12v165.12z" fill="none"></path><path d="M0,172v-172h172v172z" fill="none"></path><path d="M3.44,168.56v-165.12h165.12v165.12z" fill="none"></path><path d="M2.58,172c-1.42489,0 -2.58,-1.15511 -2.58,-2.58v-166.84c0,-1.42489 1.15511,-2.58 2.58,-2.58h166.84c1.42489,0 2.58,1.15511 2.58,2.58v166.84c0,1.42489 -1.15511,2.58 -2.58,2.58z" fill="none"></path><path d="M6.02,168.56c-1.42489,0 -2.58,-1.15511 -2.58,-2.58v-159.96c0,-1.42489 1.15511,-2.58 2.58,-2.58h159.96c1.42489,0 2.58,1.15511 2.58,2.58v159.96c0,1.42489 -1.15511,2.58 -2.58,2.58z" fill="none"></path><path d="M3.44,172c-1.89986,0 -3.44,-1.54014 -3.44,-3.44v-165.12c0,-1.89986 1.54014,-3.44 3.44,-3.44h165.12c1.89986,0 3.44,1.54014 3.44,3.44v165.12c0,1.89986 -1.54014,3.44 -3.44,3.44z" fill="none"></path><path d="M6.88,168.56c-1.89986,0 -3.44,-1.54014 -3.44,-3.44v-158.24c0,-1.89986 1.54014,-3.44 3.44,-3.44h158.24c1.89986,0 3.44,1.54014 3.44,3.44v158.24c0,1.89986 -1.54014,3.44 -3.44,3.44z" fill="none"></path><path d="M4.3,172c-2.37482,0 -4.3,-1.92518 -4.3,-4.3v-163.4c0,-2.37482 1.92518,-4.3 4.3,-4.3h163.4c2.37482,0 4.3,1.92518 4.3,4.3v163.4c0,2.37482 -1.92518,4.3 -4.3,4.3z" fill="none"></path><path d="M7.74,168.56c-2.37482,0 -4.3,-1.92518 -4.3,-4.3v-156.52c0,-2.37482 1.92518,-4.3 4.3,-4.3h156.52c2.37482,0 4.3,1.92518 4.3,4.3v156.52c0,2.37482 -1.92518,4.3 -4.3,4.3z" fill="none"></path><path d="M5.16,172c-2.84979,0 -5.16,-2.31021 -5.16,-5.16v-161.68c0,-2.84979 2.31021,-5.16 5.16,-5.16h161.68c2.84979,0 5.16,2.31021 5.16,5.16v161.68c0,2.84979 -2.31021,5.16 -5.16,5.16z" fill="none"></path><path d="M8.6,168.56c-2.84979,0 -5.16,-2.31021 -5.16,-5.16v-154.8c0,-2.84979 2.31021,-5.16 5.16,-5.16h154.8c2.84979,0 5.16,2.31021 5.16,5.16v154.8c0,2.84979 -2.31021,5.16 -5.16,5.16z" fill="none"></path><path d="M10.32,172c-5.69958,0 -10.32,-4.62042 -10.32,-10.32v-151.36c0,-5.69958 4.62042,-10.32 10.32,-10.32h151.36c5.69958,0 10.32,4.62042 10.32,10.32v151.36c0,5.69958 -4.62042,10.32 -10.32,10.32z" fill="none"></path><path d="M13.76,168.56c-5.69958,0 -10.32,-4.62042 -10.32,-10.32v-144.48c0,-5.69958 4.62042,-10.32 10.32,-10.32h144.48c5.69958,0 10.32,4.62042 10.32,10.32v144.48c0,5.69958 -4.62042,10.32 -10.32,10.32z" fill="none"></path><path d="M12.9,172c-7.12447,0 -12.9,-5.77553 -12.9,-12.9v-146.2c0,-7.12447 5.77553,-12.9 12.9,-12.9h146.2c7.12447,0 12.9,5.77553 12.9,12.9v146.2c0,7.12447 -5.77553,12.9 -12.9,12.9z" fill="none"></path><path d="M16.34,168.56c-7.12447,0 -12.9,-5.77553 -12.9,-12.9v-139.32c0,-7.12447 5.77553,-12.9 12.9,-12.9h139.32c7.12447,0 12.9,5.77553 12.9,12.9v139.32c0,7.12447 -5.77553,12.9 -12.9,12.9z" fill="none"></path><path d="M13.76,172c-7.59944,0 -13.76,-6.16056 -13.76,-13.76v-144.48c0,-7.59944 6.16056,-13.76 13.76,-13.76h144.48c7.59944,0 13.76,6.16056 13.76,13.76v144.48c0,7.59944 -6.16056,13.76 -13.76,13.76z" fill="none"></path><path d="M17.2,168.56c-7.59944,0 -13.76,-6.16056 -13.76,-13.76v-137.6c0,-7.59944 6.16056,-13.76 13.76,-13.76h137.6c7.59944,0 13.76,6.16056 13.76,13.76v137.6c0,7.59944 -6.16056,13.76 -13.76,13.76z" fill="none"></path><path d="M15.48,172c-8.54937,0 -15.48,-6.93063 -15.48,-15.48v-141.04c0,-8.54937 6.93063,-15.48 15.48,-15.48h141.04c8.54937,0 15.48,6.93063 15.48,15.48v141.04c0,8.54937 -6.93063,15.48 -15.48,15.48z" fill="none"></path><path d="M18.92,168.56c-8.54937,0 -15.48,-6.93063 -15.48,-15.48v-134.16c0,-8.54937 6.93063,-15.48 15.48,-15.48h134.16c8.54937,0 15.48,6.93063 15.48,15.48v134.16c0,8.54937 -6.93063,15.48 -15.48,15.48z" fill="none"></path><path d="M19.78,172c-10.92419,0 -19.78,-8.85581 -19.78,-19.78v-132.44c0,-10.92419 8.85581,-19.78 19.78,-19.78h132.44c10.92419,0 19.78,8.85581 19.78,19.78v132.44c0,10.92419 -8.85581,19.78 -19.78,19.78z" fill="none"></path><path d="M23.22,168.56c-10.92419,0 -19.78,-8.85581 -19.78,-19.78v-125.56c0,-10.92419 8.85581,-19.78 19.78,-19.78h125.56c10.92419,0 19.78,8.85581 19.78,19.78v125.56c0,10.92419 -8.85581,19.78 -19.78,19.78z" fill="none"></path><path d="M25.8,172c-14.24895,0 -25.8,-11.55105 -25.8,-25.8v-120.4c0,-14.24895 11.55105,-25.8 25.8,-25.8h120.4c14.24895,0 25.8,11.55105 25.8,25.8v120.4c0,14.24895 -11.55105,25.8 -25.8,25.8z" fill="none"></path><path d="M29.24,168.56c-14.24895,0 -25.8,-11.55105 -25.8,-25.8v-113.52c0,-14.24895 11.55105,-25.8 25.8,-25.8h113.52c14.24895,0 25.8,11.55105 25.8,25.8v113.52c0,14.24895 -11.55105,25.8 -25.8,25.8z" fill="none"></path><path d="M26.66,172c-14.72391,0 -26.66,-11.93609 -26.66,-26.66v-118.68c0,-14.72391 11.93609,-26.66 26.66,-26.66h118.68c14.72391,0 26.66,11.93609 26.66,26.66v118.68c0,14.72391 -11.93609,26.66 -26.66,26.66z" fill="none"></path><path d="M30.1,168.56c-14.72391,0 -26.66,-11.93609 -26.66,-26.66v-111.8c0,-14.72391 11.93609,-26.66 26.66,-26.66h111.8c14.72391,0 26.66,11.93609 26.66,26.66v111.8c0,14.72391 -11.93609,26.66 -26.66,26.66z" fill="none"></path><path d="M25.8,172c-14.24895,0 -25.8,-11.55105 -25.8,-25.8v-120.4c0,-14.24895 11.55105,-25.8 25.8,-25.8h120.4c14.24895,0 25.8,11.55105 25.8,25.8v120.4c0,14.24895 -11.55105,25.8 -25.8,25.8z" fill="none"></path><path d="M29.24,168.56c-14.24895,0 -25.8,-11.55105 -25.8,-25.8v-113.52c0,-14.24895 11.55105,-25.8 25.8,-25.8h113.52c14.24895,0 25.8,11.55105 25.8,25.8v113.52c0,14.24895 -11.55105,25.8 -25.8,25.8z" fill="none"></path><path d="M24.08,172c-13.29902,0 -24.08,-10.78098 -24.08,-24.08v-123.84c0,-13.29902 10.78098,-24.08 24.08,-24.08h123.84c13.29902,0 24.08,10.78098 24.08,24.08v123.84c0,13.29902 -10.78098,24.08 -24.08,24.08z" fill="none"></path><path d="M27.52,168.56c-13.29902,0 -24.08,-10.78098 -24.08,-24.08v-116.96c0,-13.29902 10.78098,-24.08 24.08,-24.08h116.96c13.29902,0 24.08,10.78098 24.08,24.08v116.96c0,13.29902 -10.78098,24.08 -24.08,24.08z" fill="none"></path><path d="M23.22,172c-12.82405,0 -23.22,-10.39595 -23.22,-23.22v-125.56c0,-12.82405 10.39595,-23.22 23.22,-23.22h125.56c12.82405,0 23.22,10.39595 23.22,23.22v125.56c0,12.82405 -10.39595,23.22 -23.22,23.22z" fill="none"></path><path d="M26.66,168.56c-12.82405,0 -23.22,-10.39595 -23.22,-23.22v-118.68c0,-12.82405 10.39595,-23.22 23.22,-23.22h118.68c12.82405,0 23.22,10.39595 23.22,23.22v118.68c0,12.82405 -10.39595,23.22 -23.22,23.22z" fill="none"></path><path d="M21.5,172c-11.87412,0 -21.5,-9.62588 -21.5,-21.5v-129c0,-11.87412 9.62588,-21.5 21.5,-21.5h129c11.87412,0 21.5,9.62588 21.5,21.5v129c0,11.87412 -9.62588,21.5 -21.5,21.5z" fill="none"></path><path d="M24.94,168.56c-11.87412,0 -21.5,-9.62588 -21.5,-21.5v-122.12c0,-11.87412 9.62588,-21.5 21.5,-21.5h122.12c11.87412,0 21.5,9.62588 21.5,21.5v122.12c0,11.87412 -9.62588,21.5 -21.5,21.5z" fill="none"></path><path d="M20.64,172c-11.39916,0 -20.64,-9.24084 -20.64,-20.64v-130.72c0,-11.39916 9.24084,-20.64 20.64,-20.64h130.72c11.39916,0 20.64,9.24084 20.64,20.64v130.72c0,11.39916 -9.24084,20.64 -20.64,20.64z" fill="none"></path><path d="M24.08,168.56c-11.39916,0 -20.64,-9.24084 -20.64,-20.64v-123.84c0,-11.39916 9.24084,-20.64 20.64,-20.64h123.84c11.39916,0 20.64,9.24084 20.64,20.64v123.84c0,11.39916 -9.24084,20.64 -20.64,20.64z" fill="none"></path><path d="M21.5,172c-11.87412,0 -21.5,-9.62588 -21.5,-21.5v-129c0,-11.87412 9.62588,-21.5 21.5,-21.5h129c11.87412,0 21.5,9.62588 21.5,21.5v129c0,11.87412 -9.62588,21.5 -21.5,21.5z" fill="none"></path><path d="M24.94,168.56c-11.87412,0 -21.5,-9.62588 -21.5,-21.5v-122.12c0,-11.87412 9.62588,-21.5 21.5,-21.5h122.12c11.87412,0 21.5,9.62588 21.5,21.5v122.12c0,11.87412 -9.62588,21.5 -21.5,21.5z" fill="none"></path><path d="M21.5,172c-11.87412,0 -21.5,-9.62588 -21.5,-21.5v-129c0,-11.87412 9.62588,-21.5 21.5,-21.5h129c11.87412,0 21.5,9.62588 21.5,21.5v129c0,11.87412 -9.62588,21.5 -21.5,21.5z" fill="none"></path><path d="M24.94,168.56c-11.87412,0 -21.5,-9.62588 -21.5,-21.5v-122.12c0,-11.87412 9.62588,-21.5 21.5,-21.5h122.12c11.87412,0 21.5,9.62588 21.5,21.5v122.12c0,11.87412 -9.62588,21.5 -21.5,21.5z" fill="none"></path></g></svg>