<svg xmlns="http://www.w3.org/2000/svg" x="0px" y="0px"
width="50" height="50"
viewBox="0 0 172 172"
style=" fill:#000000;"><g fill="none" fill-rule="nonzero" stroke="none" stroke-width="1" stroke-linecap="butt" stroke-linejoin="miter" stroke-miterlimit="10" stroke-dasharray="" stroke-dashoffset="0" font-family="none" font-weight="none" font-size="none" text-anchor="none" style="mix-blend-mode: normal"><path d="M0,172v-172h172v172z" fill="none"></path><path d="M21.5,172c-11.87412,0 -21.5,-9.62588 -21.5,-21.5v-129c0,-11.87412 9.62588,-21.5 21.5,-21.5h129c11.87412,0 21.5,9.62588 21.5,21.5v129c0,11.87412 -9.62588,21.5 -21.5,21.5zM147.06,168.56c11.87412,0 21.5,-9.62588 21.5,-21.5v-122.12c0,-11.87412 -9.62588,-21.5 -21.5,-21.5h-122.12c-11.87412,0 -21.5,9.62588 -21.5,21.5v122.12c0,11.87412 9.62588,21.5 21.5,21.5z" fill="#6db4c7"></path><g fill="#6db4c7"><g id="surface1"><path d="M103.28712,36.12033c-1.31387,-0.03285 -2.46351,0.4708 -3.05475,1.92701c-1.0073,2.44161 1.5,4.82848 2.39782,6.07666c0.62409,0.86497 1.43431,1.83942 1.88322,2.81387c0.29562,0.64599 0.33942,1.29198 0.59124,1.97081c0.62409,1.67519 1.62044,3.5803 2.41972,5.13505c0.40511,0.78832 0.85402,1.60949 1.36862,2.31022c0.31752,0.42701 0.85402,0.62409 0.94161,1.28102c-0.52555,0.74453 -0.55839,1.89417 -0.85402,2.83577c-1.33577,4.21534 -0.83212,9.45987 1.10584,12.56937c0.60219,0.96351 2.0146,3.01096 3.94161,2.23358c1.68614,-0.68978 1.31387,-2.82482 1.79562,-4.71899c0.10949,-0.41606 0.0438,-0.73358 0.26277,-1.01825v0.08759c0.50365,1.0292 1.01825,2.0584 1.53285,3.07665c1.14964,1.83942 3.17519,3.75548 4.88322,5.05841c0.88686,0.66788 1.58759,1.82847 2.73723,2.22263v-0.08759h-0.08759c-0.21898,-0.35037 -0.56934,-0.4927 -0.85402,-0.76643c-0.66789,-0.65694 -1.41241,-1.47811 -1.95986,-2.23358c-1.5657,-2.11314 -2.94526,-4.43432 -4.19344,-6.84308c-0.60219,-1.14964 -1.12774,-2.41971 -1.63139,-3.59125c-0.19708,-0.45986 -0.19708,-1.13869 -0.60219,-1.37957c-0.5584,0.86497 -1.36862,1.55475 -1.79562,2.573c-0.67883,1.62044 -0.77737,3.6022 -1.0292,5.64965c-0.15329,0.05474 -0.08759,0.01095 -0.16423,0.08759c-1.19343,-0.29562 -1.62044,-1.5219 -2.0584,-2.573c-1.11679,-2.66059 -1.33577,-6.95257 -0.33942,-10.00732c0.25183,-0.79927 1.40146,-3.29563 0.94161,-4.02921c-0.21898,-0.73358 -0.96351,-1.14964 -1.36862,-1.70803c-0.5146,-0.68978 -1.01825,-1.59855 -1.36862,-2.39782c-0.91971,-2.0803 -1.78468,-4.48906 -2.75913,-6.59125c-0.45985,-1.0073 -1.23723,-2.0146 -1.88322,-2.91242c-0.71168,-0.9854 -1.5,-1.70803 -2.0584,-2.91241c-0.18613,-0.41606 -0.45985,-1.09489 -0.16423,-1.53285c0.08759,-0.29562 0.21898,-0.41606 0.5146,-0.5146c0.4927,-0.38321 1.87227,0.12044 2.39782,0.33942c1.36862,0.56934 2.51825,1.11679 3.67884,1.88322c0.5584,0.37226 1.11679,1.08394 1.79562,1.29197h0.76642c1.21533,0.27372 2.56205,0.07664 3.67884,0.42701c1.99271,0.60219 3.77738,1.5438 5.38687,2.56205c4.93797,3.1095 8.97812,7.54381 11.7263,12.83214c0.44891,0.85402 0.64599,1.67519 1.04015,2.573c0.77737,1.81752 1.77373,3.70074 2.56205,5.47446c0.77737,1.78468 1.5438,3.56935 2.64964,5.04746c0.58029,0.77737 2.83577,1.20438 3.85402,1.63139c0.71168,0.30657 1.89416,0.62409 2.56205,1.0292c1.30292,0.77737 2.5511,1.70803 3.76643,2.573c0.61314,0.42701 2.47446,1.35767 2.573,2.13504c-3.01096,-0.07664 -5.31023,0.19708 -7.27009,1.0292c-0.5584,0.24088 -1.45621,0.24088 -1.5438,0.94161c0.29562,0.31752 0.35037,0.79927 0.59124,1.19343c0.4708,0.75548 1.25913,1.77373 1.97081,2.31022c0.77737,0.58029 1.5657,1.20438 2.39782,1.71898c1.46716,0.88686 3.1095,1.40146 4.53286,2.29927c0.83212,0.5365 1.67519,1.20438 2.4854,1.79562c0.40511,0.30657 0.66789,0.76643 1.19344,0.95256v-0.08759c-0.27373,-0.35037 -0.33942,-0.83212 -0.59124,-1.19343l-1.12774,-1.12774c-1.08394,-1.43431 -2.46351,-2.70439 -3.93066,-3.75548c-1.17154,-0.84307 -3.78833,-1.98176 -4.27008,-3.33942l-0.08759,-0.08759c0.82117,-0.08759 1.79562,-0.39416 2.56205,-0.60219c1.29197,-0.33941 2.43066,-0.25182 3.75548,-0.59124c0.60219,-0.17518 1.20438,-0.35037 1.80658,-0.5146v-0.35037c-0.66789,-0.67883 -1.14964,-1.59854 -1.88322,-2.22263c-1.91606,-1.63139 -4.00731,-3.26278 -6.16425,-4.62045c-1.19343,-0.75548 -2.67154,-1.24818 -3.93067,-1.88322c-0.42701,-0.21898 -1.17154,-0.32847 -1.45621,-0.68978c-0.66788,-0.84307 -1.0292,-1.91606 -1.5438,-2.90147c-1.073,-2.06935 -2.12409,-4.32483 -3.07665,-6.50367c-0.64598,-1.4781 -1.07299,-2.94526 -1.88322,-4.28103c-3.88687,-6.38323 -8.06936,-10.2482 -14.55113,-14.03653c-1.37956,-0.81022 -3.03285,-1.11679 -4.78468,-1.53285c-0.95256,-0.06569 -1.88322,-0.12044 -2.83577,-0.17518c-0.56934,-0.24088 -1.17154,-0.94161 -1.70803,-1.29197c-1.34672,-0.84307 -3.99636,-2.31022 -6.18614,-2.34307zM112.56086,45.40502c-0.62409,-0.01095 -1.073,0.07664 -1.5438,0.17518v0.08759h0.08759c0.29562,0.61314 0.83212,1.0073 1.20438,1.53285c0.28467,0.60219 0.5584,1.20438 0.84307,1.80657l0.08759,-0.08759c0.52555,-0.37226 0.77737,-0.97445 0.77737,-1.88322c-0.21898,-0.21898 -0.25183,-0.50365 -0.42701,-0.76642c-0.25183,-0.36131 -0.72263,-0.5584 -1.0292,-0.86497zM21.1592,80.9562c-0.84307,0.03285 -1.76278,0.19708 -2.75913,0.5146c-1.66424,0.50365 -2.48541,1.5 -2.48541,3.52555v21.19713h5.6168v-20.68253l7.78469,17.68252c0.96351,2.20073 2.27738,2.98906 4.85038,2.98906c2.58395,0 3.84307,-0.78832 4.80658,-2.98906l7.78469,-17.23362v20.23362h5.60585v-21.19713c0,-2.02555 -0.81022,-3.0219 -2.48541,-3.52555c-3.98541,-1.25913 -6.6679,-0.17518 -7.87228,2.5511l-7.99272,17.97814l-7.72994,-17.97814c-0.87591,-2.04745 -2.62774,-3.16424 -5.1241,-3.0657zM89.49146,80.96714c-2.21169,0 -9.09856,0.26277 -9.09856,5.60585v3.45986c0,2.45256 2.15694,4.45621 6.83213,4.94892c0.52555,0.03285 1.0511,0.07664 1.57665,0.07664c0,0 5.45257,-0.10949 5.60585,-0.07664c3.15329,0 2.80293,2.45256 2.80293,2.80293v2.80293c0,0.38321 -0.08759,2.80293 -2.83577,2.80293h-13.98178v2.80293h14.03653c1.83942,0 3.62409,-0.38321 5.04746,-1.0511c2.36497,-1.08394 3.33942,-2.5511 3.33942,-4.47811v-4.00731c0,-4.30293 -5.34308,-4.47811 -8.40878,-4.47811h-5.60585c-2.20073,0 -2.54015,-1.33577 -2.80293,-2.80293v-2.80293c0.26277,-1.11679 0.75548,-2.62774 2.70439,-2.80293h14.11317v-2.80293zM111.17034,80.96714c-4.1387,0.56934 -5.5949,2.62774 -5.5949,5.60585v14.01463c0,2.72628 1.5219,4.36862 4.65329,5.22264c1.0511,0.29562 2.00365,0.41606 2.90147,0.41606l6.24089,-0.03285h3.66789l3.12044,2.80293h6.30658l-4.33578,-3.90877c2.0365,-0.84307 2.67154,-2.13504 2.67154,-4.55475v-13.95989c0,-2.97811 -1.93796,-5.03651 -6.07666,-5.60585zM133.64849,80.96714v19.50004c0,3.38322 1.91606,5.28833 6.98542,5.67155c0.4708,0.0219 0.95255,0.05474 1.42336,0.05474h14.01463v-2.80293h-12.95258c-2.89052,0 -3.86497,-1.21533 -3.86497,-2.94526v-19.47815zM114.50977,83.77007h7.21534c1.90511,0 3.18614,1.53285 3.47081,2.80293c0,0 0.0438,13.05112 0.0438,14.01463c0,0.96351 -0.5365,1.40146 -0.5365,1.40146l-1.5219,-1.40146h-6.35038l3.12044,2.80293h-5.44162c-1.94891,0 -3.0438,-1.44526 -3.32847,-2.80293v-13.72996c0,-1.48905 1.13869,-3.0876 3.32847,-3.0876zM55.16657,89.37592c0.10949,0.10949 0,11.94528 0,12.17521c0.0438,2.45256 3.15329,4.59855 8.02556,4.64235h8.79199v0.18613c0,0.52555 0.38321,2.27738 -2.80293,2.61679c-0.03285,0 -13.98178,0 -14.01463,0v2.80293h14.61682c2.47446,-0.07664 7.83943,-0.63504 7.80659,-4.92702c0,-0.07664 0.0219,-17.49639 0,-17.49639h-5.60585v14.01463c-0.08759,0 -6.94162,0.0219 -8.32119,0c-2.70439,-0.0438 -2.93431,-1.58759 -2.89052,-2.17884v-11.83579z"></path></g></g><path d="M21.5,172c-11.87412,0 -21.5,-9.62588 -21.5,-21.5v-129c0,-11.87412 9.62588,-21.5 21.5,-21.5h129c11.87412,0 21.5,9.62588 21.5,21.5v129c0,11.87412 -9.62588,21.5 -21.5,21.5z" fill="none"></path><path d="M24.94,168.56c-11.87412,0 -21.5,-9.62588 -21.5,-21.5v-122.12c0,-11.87412 9.62588,-21.5 21.5,-21.5h122.12c11.87412,0 21.5,9.62588 21.5,21.5v122.12c0,11.87412 -9.62588,21.5 -21.5,21.5z" fill="none"></path><path d="M21.5,172c-11.87412,0 -21.5,-9.62588 -21.5,-21.5v-129c0,-11.87412 9.62588,-21.5 21.5,-21.5h129c11.87412,0 21.5,9.62588 21.5,21.5v129c0,11.87412 -9.62588,21.5 -21.5,21.5z" fill="none"></path><path d="M24.94,168.56c-11.87412,0 -21.5,-9.62588 -21.5,-21.5v-122.12c0,-11.87412 9.62588,-21.5 21.5,-21.5h122.12c11.87412,0 21.5,9.62588 21.5,21.5v122.12c0,11.87412 -9.62588,21.5 -21.5,21.5z" fill="none"></path></g></svg>