<svg xmlns="http://www.w3.org/2000/svg" x="0px" y="0px"
width="50" height="50"
viewBox="0 0 172 172"
style=" fill:#000000;"><g fill="none" fill-rule="none" stroke="none" stroke-width="1" stroke-linecap="butt" stroke-linejoin="miter" stroke-miterlimit="10" stroke-dasharray="" stroke-dashoffset="0" font-family="none" font-weight="none" font-size="none" text-anchor="none" style="mix-blend-mode: normal"><path d="M0,172v-172h172v172z" fill="none" fill-rule="nonzero"></path><path d="M21.5,172c-11.87412,0 -21.5,-9.62588 -21.5,-21.5v-129c0,-11.87412 9.62588,-21.5 21.5,-21.5h129c11.87412,0 21.5,9.62588 21.5,21.5v129c0,11.87412 -9.62588,21.5 -21.5,21.5zM147.06,168.56c11.87412,0 21.5,-9.62588 21.5,-21.5v-122.12c0,-11.87412 -9.62588,-21.5 -21.5,-21.5h-122.12c-11.87412,0 -21.5,9.62588 -21.5,21.5v122.12c0,11.87412 9.62588,21.5 21.5,21.5z" fill="#6db4c7" fill-rule="nonzero"></path><g fill="#6db4c7" fill-rule="evenodd"><path d="M115.26814,21.62041c-2.38835,-0.08031 -4.8883,0.33609 -7.39481,1.14871c-5.01301,1.62524 -10.26615,4.79244 -15.65714,9.1777c-2.11273,1.71859 -4.24463,3.6831 -6.38371,5.76748c-2.09192,-2.03146 -4.18001,-3.94324 -6.2461,-5.62389c-5.38665,-4.38174 -10.62556,-7.55016 -15.62722,-9.17172c-5.00166,-1.62156 -9.97834,-1.67181 -14.0657,0.68803c-4.08736,2.35984 -6.53163,6.69174 -7.62815,11.83409c-1.09652,5.14235 -0.97573,11.26622 0.12564,18.12208c0.38256,2.38136 0.92815,4.87962 1.54956,7.42473c-2.33551,0.70781 -4.60358,1.45202 -6.70678,2.27348c-6.34729,2.47911 -11.5993,5.445 -15.42381,8.97429c-3.82451,3.52929 -6.29397,7.81273 -6.29397,12.51614c0,4.70341 2.46946,8.98087 6.29397,12.51016c3.82451,3.52929 9.07651,6.50116 15.42381,8.98027c2.24894,0.87838 4.68379,1.66931 7.19738,2.41708c-0.90413,3.37825 -1.63666,6.65647 -2.13588,9.76402c-1.10226,6.86136 -1.21865,12.98601 -0.11966,18.14002c1.09901,5.15402 3.54451,9.51046 7.65208,11.88196c4.10757,2.3715 9.10653,2.31327 14.11955,0.68803c5.01301,-1.62524 10.26017,-4.78646 15.65116,-9.17172c2.09327,-1.70276 4.21071,-3.64518 6.32986,-5.70765c2.13027,2.0749 4.25618,4.0264 6.35978,5.73756c5.38666,4.38174 10.63154,7.54418 15.63321,9.16574c5.00167,1.62156 9.97834,1.67181 14.0657,-0.68803c4.08736,-2.35984 6.52564,-6.69174 7.62216,-11.83409c1.09652,-5.14235 0.97573,-11.26024 -0.12564,-18.11609c-0.50057,-3.11598 -1.23355,-6.40508 -2.14186,-9.79394c2.59662,-0.76598 5.10838,-1.57818 7.42473,-2.48289c6.34729,-2.47911 11.5993,-5.45098 15.42381,-8.98027c3.82451,-3.52929 6.29397,-7.80674 6.29397,-12.51016c0,-4.70341 -2.46946,-8.98685 -6.29397,-12.51614c-3.82451,-3.52929 -9.07652,-6.49518 -15.42381,-8.97429c-2.13339,-0.83325 -4.43626,-1.58716 -6.80849,-2.3034c0.62646,-2.5607 1.18265,-5.07689 1.56751,-7.47259c1.10226,-6.86136 1.21868,-12.99199 0.11966,-18.14601c-1.09899,-5.15402 -3.55049,-9.50447 -7.65806,-11.87597c-2.05378,-1.18575 -4.3304,-1.76241 -6.71875,-1.84272zM114.98695,27.85454c1.49872,0.04098 2.77725,0.39763 3.87091,1.02905c2.18731,1.26284 3.80409,3.72066 4.66663,7.76575c0.86255,4.04508 0.83273,9.51041 -0.18547,15.84859c-0.34861,2.17006 -0.8548,4.46997 -1.4299,6.82644c-6.26584,-1.50795 -13.13177,-2.62692 -20.44941,-3.28459c-3.67353,-5.08916 -7.44814,-9.7255 -11.25376,-13.83835c2.01295,-1.96494 4.01287,-3.80268 5.96491,-5.39056c4.97993,-4.05089 9.69453,-6.80729 13.62895,-8.08284c1.96721,-0.63778 3.68842,-0.91448 5.18714,-0.8735zM56.8575,27.87249c1.50738,-0.04208 3.2322,0.23388 5.20509,0.8735c3.94577,1.27923 8.66863,4.03442 13.65288,8.08882c1.91286,1.556 3.86799,3.35876 5.83927,5.27688c-3.83376,4.14652 -7.63958,8.82304 -11.33752,13.95801c-7.28669,0.66964 -14.12468,1.79468 -20.35967,3.30852c-0.57082,-2.3434 -1.07707,-4.63147 -1.42392,-6.79054c-1.01909,-6.34369 -1.04452,-11.80979 -0.17949,-15.86654c0.86504,-4.05675 2.49501,-6.53312 4.70253,-7.80763c1.10376,-0.63726 2.39344,-0.99894 3.90082,-1.04102zM85.9282,46.6108c2.49533,2.71553 4.9912,5.68713 7.46661,8.88455c-2.43229,-0.10142 -4.89434,-0.16154 -7.39481,-0.16154c-2.55027,0 -5.05919,0.06207 -7.5384,0.16752c2.47597,-3.19989 4.97066,-6.17296 7.46661,-8.89053zM86,61.52009c4.16566,0 8.22582,0.17118 12.17512,0.46068c2.71745,3.90302 5.37301,8.04372 7.90336,12.4264c2.22334,3.85093 4.23534,7.69594 6.06662,11.49307c-1.85061,3.84751 -3.89633,7.74451 -6.15038,11.64862c-1.98416,3.43666 -4.05618,6.70069 -6.16234,9.84779c-4.46101,0.37286 -9.08344,0.58034 -13.83237,0.58034c-4.86325,0 -9.58954,-0.21979 -14.14946,-0.61025c-2.0711,-3.10184 -4.10816,-6.31643 -6.06063,-9.69821c-2.24889,-3.89519 -4.28474,-7.78508 -6.13243,-11.62469c1.85544,-3.86129 3.90043,-7.77276 6.16234,-11.6905c2.51708,-4.35971 5.1649,-8.47644 7.86746,-12.36059c3.99181,-0.29602 8.0991,-0.47264 12.31272,-0.47264zM106.06052,62.74657c5.04964,0.63006 9.79084,1.50481 14.20331,2.55468c-1.30928,4.29202 -2.92199,8.77512 -4.87603,13.4016c-1.26874,-2.44575 -2.58276,-4.8998 -4.00253,-7.35892c-1.72057,-2.98012 -3.5126,-5.82129 -5.32474,-8.59737zM65.61042,62.79444c-1.7739,2.72417 -3.51938,5.51012 -5.20509,8.42985c-1.43799,2.49067 -2.77929,4.97774 -4.06236,7.45464c-1.93718,-4.59867 -3.54018,-9.05627 -4.84013,-13.32382c4.37955,-1.05178 9.09313,-1.92342 14.10758,-2.56066zM126.32446,66.92859c2.17146,0.65702 4.26861,1.34267 6.19226,2.094c5.85123,2.28535 10.4796,4.99155 13.47938,7.75977c2.99977,2.76822 4.30167,5.40815 4.30167,7.96917c0,2.56102 -1.3019,5.20095 -4.30167,7.96917c-2.99978,2.76822 -7.62816,5.47442 -13.47938,7.75977c-2.13767,0.83492 -4.48636,1.59204 -6.92815,2.30938c-1.74184,-5.38753 -3.9651,-11.00815 -6.61106,-16.74602c3.04227,-6.58759 5.4999,-13.01054 7.34695,-19.11523zM45.57382,66.95851c1.82589,6.04378 4.25199,12.40288 7.25123,18.92378c-2.66333,5.77131 -4.89759,11.42387 -6.64696,16.84175c-2.35574,-0.69847 -4.62482,-1.43508 -6.69482,-2.24357c-5.85123,-2.28535 -10.4796,-4.99155 -13.47938,-7.75977c-2.99978,-2.76822 -4.30168,-5.40815 -4.30168,-7.96917c0,-2.56102 1.3019,-5.20095 4.30168,-7.96917c2.99978,-2.76822 7.62815,-5.47442 13.47938,-7.75977c1.89406,-0.73977 3.95604,-1.41566 6.09055,-2.06409zM86,70.67984c-8.42257,0 -15.31612,6.89354 -15.31612,15.31612c0,8.42257 6.89354,15.31612 15.31612,15.31612c8.42257,0 15.31612,-6.89354 15.31612,-15.31612c0,-8.42257 -6.89354,-15.31612 -15.31612,-15.31612zM56.41477,93.2412c1.2887,2.48923 2.62895,4.98708 4.07433,7.49054c1.13086,1.9587 2.28577,3.86532 3.45809,5.73756c-4.1138,-0.57044 -8.02427,-1.29265 -11.69649,-2.14785c1.16779,-3.57666 2.5649,-7.28933 4.16407,-11.08026zM115.46558,93.2412c1.60557,3.7999 3.00339,7.51852 4.17603,11.10419c-3.68388,0.8542 -7.60638,1.57394 -11.73238,2.14186c1.18769,-1.89514 2.36064,-3.82561 3.50595,-5.80935c1.43474,-2.48505 2.76979,-4.96564 4.0504,-7.43669zM50.48575,110.26842c5.5439,1.31333 11.55284,2.32218 17.92464,2.97946c4.25349,6.1521 8.68471,11.68011 13.14434,16.51269c-1.9942,1.94438 -3.97074,3.76922 -5.90508,5.34269c-4.97993,4.05089 -9.70052,6.8013 -13.63493,8.07686c-3.93442,1.27555 -6.87074,1.10728 -9.05805,-0.15555c-2.18731,-1.26285 -3.7981,-3.72067 -4.66065,-7.76575c-0.86255,-4.04508 -0.83871,-9.50442 0.17949,-15.84261c0.46191,-2.87534 1.15223,-5.95424 2.01024,-9.14779zM121.41254,110.29235c0.86518,3.21304 1.55754,6.30322 2.02221,9.19565c1.01909,6.34369 1.04452,11.80978 0.17949,15.86654c-0.86504,4.05676 -2.48304,6.5391 -4.69056,7.81361c-2.20752,1.27452 -5.17211,1.44078 -9.11788,0.16154c-3.94577,-1.27924 -8.66863,-4.03442 -13.65288,-8.08882c-1.94825,-1.58479 -3.93847,-3.42442 -5.94696,-5.38457c4.48951,-4.85144 8.95203,-10.40761 13.23408,-16.59645c6.38787,-0.6529 12.4135,-1.65572 17.97251,-2.9675zM76.4035,113.87608c3.1452,0.17141 6.33185,0.28718 9.5965,0.28718c3.15666,0 6.23998,-0.10882 9.2854,-0.26923c-3.11312,4.2002 -6.2864,8.01868 -9.44693,11.45717c-3.15862,-3.44584 -6.32593,-7.27114 -9.43497,-11.47512z"></path></g><path d="M21.5,172c-11.87412,0 -21.5,-9.62588 -21.5,-21.5v-129c0,-11.87412 9.62588,-21.5 21.5,-21.5h129c11.87412,0 21.5,9.62588 21.5,21.5v129c0,11.87412 -9.62588,21.5 -21.5,21.5z" fill="none" fill-rule="nonzero"></path><path d="M24.94,168.56c-11.87412,0 -21.5,-9.62588 -21.5,-21.5v-122.12c0,-11.87412 9.62588,-21.5 21.5,-21.5h122.12c11.87412,0 21.5,9.62588 21.5,21.5v122.12c0,11.87412 -9.62588,21.5 -21.5,21.5z" fill="none" fill-rule="nonzero"></path><path d="M21.5,172c-11.87412,0 -21.5,-9.62588 -21.5,-21.5v-129c0,-11.87412 9.62588,-21.5 21.5,-21.5h129c11.87412,0 21.5,9.62588 21.5,21.5v129c0,11.87412 -9.62588,21.5 -21.5,21.5z" fill="none" fill-rule="nonzero"></path><path d="M24.94,168.56c-11.87412,0 -21.5,-9.62588 -21.5,-21.5v-122.12c0,-11.87412 9.62588,-21.5 21.5,-21.5h122.12c11.87412,0 21.5,9.62588 21.5,21.5v122.12c0,11.87412 -9.62588,21.5 -21.5,21.5z" fill="none" fill-rule="nonzero"></path><path d="M21.5,172c-11.87412,0 -21.5,-9.62588 -21.5,-21.5v-129c0,-11.87412 9.62588,-21.5 21.5,-21.5h129c11.87412,0 21.5,9.62588 21.5,21.5v129c0,11.87412 -9.62588,21.5 -21.5,21.5z" fill="none" fill-rule="nonzero"></path><path d="M24.94,168.56c-11.87412,0 -21.5,-9.62588 -21.5,-21.5v-122.12c0,-11.87412 9.62588,-21.5 21.5,-21.5h122.12c11.87412,0 21.5,9.62588 21.5,21.5v122.12c0,11.87412 -9.62588,21.5 -21.5,21.5z" fill="none" fill-rule="nonzero"></path></g></svg>