<?xml version="1.0" encoding="utf-8"?>
<!-- Generator: Adobe Illustrator 23.0.4, SVG Export Plug-In . SVG Version: 6.00 Build 0)  -->
<svg version="1.1" id="Layer_1" xmlns="http://www.w3.org/2000/svg" xmlns:xlink="http://www.w3.org/1999/xlink" x="0px" y="0px"
	 viewBox="0 0 100 100" style="enable-background:new 0 0 100 100;" xml:space="preserve">
<style type="text/css">
	.st0{fill:none;stroke:#000000;stroke-width:2;stroke-miterlimit:10;}
</style>
<g>
	<path d="M54.13,45.08c-0.53,0.38-1.2,0.65-2.02,0.8s-1.68,0.23-2.59,0.23c-1.07,0-2.09-0.17-3.06-0.52
		c-0.97-0.34-1.82-0.87-2.56-1.58c-0.74-0.71-1.32-1.62-1.75-2.71c-0.43-1.1-0.65-2.4-0.65-3.9c0-1.57,0.24-2.9,0.72-4.01
		s1.1-2,1.87-2.7c0.77-0.7,1.63-1.2,2.59-1.52c0.96-0.32,1.91-0.48,2.86-0.48c1.06,0,1.92,0.06,2.59,0.17s1.24,0.26,1.7,0.43
		l-0.53,2.06c-0.78-0.37-1.98-0.55-3.58-0.55c-0.72,0-1.42,0.12-2.1,0.35s-1.29,0.61-1.82,1.13c-0.54,0.52-0.96,1.2-1.28,2.04
		c-0.32,0.84-0.48,1.87-0.48,3.08c0,1.09,0.15,2.04,0.46,2.87c0.3,0.82,0.72,1.51,1.26,2.06c0.54,0.55,1.17,0.97,1.9,1.25
		c0.73,0.28,1.52,0.42,2.39,0.42c0.78,0,1.46-0.07,2.04-0.22c0.58-0.14,1.06-0.33,1.46-0.55L54.13,45.08z"/>
</g>
<line class="st0" x1="36" y1="49" x2="61" y2="49"/>
<g>
	<path d="M54.88,68.28H43.88v-16.8h2.4v14.69h8.59V68.28z"/>
</g>
</svg>
